# xmcd
#
# Track frame offsets:
#	150
#	12522
#	24565
#	37782
#	48695
#	58467
#	68047
#	78282
#	89217
#	99527
#	109757
#	121602
#	131565
#	146195
#	157607
#	167575
#	177422
#	187702
#	198570
#	211335
#	224290
#	237202
#	250232
#	263040
#	273485
#	283282
#	293285
#
# Disc length: 4100 seconds
#
# Revision: 0
# Processed by: cddbd v1.5.1PL0 Copyright (c) Steve Scherf et al.
# Submitted via: audiograbber 1.81.02
#
DISCID=8910021b
DTITLE=Barbara Mandrell - The Midnight Oil/Treat Him Right
DYEAR=2000
DGENRE=Country
TTITLE0=The Midnight Oil
TTITLE1=Give a Little, Take a Little
TTITLE2=Jamestown Ferry
TTITLE3=Show Me
TTITLE4=In the Name of Love
TTITLE5=Tonight My Baby's Coming Home
TTITLE6=Ain't it Good
TTITLE7=Satisfied
TTITLE8=Holdin' On (To The Love I Got)
TTITLE9=Smile Somebody Loves You
TTITLE10=We're Gonna Hold On
TTITLE11=Do Right Woman-Do Right Man
TTITLE12=He'll Never Take the Place of You
TTITLE13=Playin' Around With Love
TTITLE14=I've Been Loving You Too Long (To Stop Now)
TTITLE15=The Letter
TTITLE16=Treat Him Right
TTITLE17=Break My Mind
TTITLE18=Watching My World Walk Away
TTITLE19=Baby, Come Home
TTITLE20=I Almost Lost My Mind
TTITLE21=Games People Play
TTITLE22=The Ten Commandments of Love
TTITLE23=This Time I Almost Made It
TTITLE24=Wonder When My Baby's Comin' Home
TTITLE25=After Closing Time
TTITLE26=I Love You, I Love You
EXTD=
EXTT0=
EXTT1=
EXTT2=
EXTT3=
EXTT4=
EXTT5=
EXTT6=
EXTT7=
EXTT8=
EXTT9=
EXTT10=
EXTT11=
EXTT12=
EXTT13=
EXTT14=
EXTT15=
EXTT16=
EXTT17=
EXTT18=
EXTT19=
EXTT20=
EXTT21=
EXTT22=
EXTT23=
EXTT24=
EXTT25=
EXTT26=
PLAYORDER=
